<?xml version="1.0" encoding="utf-8"?>
<!-- Generator: Limmidy via Adobe Illustrator 18.1.1, SVG Export Plug-In . SVG Version: 6.00 Build 0)  -->
<svg version="1.1" xmlns="http://www.w3.org/2000/svg" xmlns:xlink="http://www.w3.org/1999/xlink" x="0px" y="0px"
	 viewBox="450 300 900 300" enable-background="new 450 300 900 300" xml:space="preserve">
<g>
	<g>
		<path fill="#590055" d="M1131.1,495.9c-5.7,0.2-13.3,0.5-16.6,0.5c-22.1,0-23.2-11.1-23.2-43.2v-65.9h38.4
			c7.1-10.7,15.9-20.4,25.1-28.7h-63.3v-51.7l-33.2,16.1v134c0,23.7,0.5,39.1,8.3,51.5c7.8,12.1,21.6,18.3,41,18.3
			c1.9,0,4.5,0,7.1-0.2c4.7,0.2,9.7-0.2,14.2-0.9c0.7,0,1.2-0.2,1.9-0.2c2.6-0.2,4.7-0.5,6.6-0.9l13-5.2
			C1143.7,512,1137,504.4,1131.1,495.9z"/>
		<path fill="#590055" d="M1325.3,382.5c-17.5-18.5-43.4-28.5-74.5-28.9c-31.5-0.5-58.3,8.1-77.5,24.4
			c-18.3,15.7-28.5,38.2-28.5,63.1c0,23.5,9.2,44.8,26.3,60.5c18.5,16.8,44.3,25.8,75.2,25.8c59.3,0,102.4-36,102.4-85.4
			C1348.8,419.5,1340.5,398.4,1325.3,382.5z M1313.2,441.1c0,34.4-26.3,56.7-67.1,56.7c-48.1,0-65.2-29.2-65.2-56.4
			c0-34.4,25.4-57.4,64.7-58.3c0.5,0,0.9,0,1.4,0C1292.8,383,1313.2,412.2,1313.2,441.1z"/>
	</g>
	<path fill="#590055" d="M1010.4,429.3c-5.7-1.9-14.7-4.5-34.9-6.2c-9.2-0.7-18.5-1.2-27.5-1.7c-5.9-0.2-12.1-0.5-18.3-0.9
		c-19.7-1.2-25.6-2.1-29.4-6.2c-1.9-2.1-3.1-5-3.1-8.1c0-3.6,1.4-8.8,8.5-13c7.8-5.2,22.8-8.1,40.8-8.1c16.4,0,37.7,2.6,48.8,9.7
		c2.8,1.9,4.5,3.8,5.7,5.5l31.1-14.9c-4-5.9-10.4-13-21.1-19.2c-19.7-10.2-48.6-11.9-63.8-11.9c-12.3,0-30.1,0.9-45.5,5.7
		c-14.9,4.5-26.3,13-33,24.9v0.2c-3.6,6.9-5.7,15.2-5.7,23.2c0,18.3,10.2,33,28.2,40.3h0.2c12.1,4.5,26.1,5.2,47.7,5.9
		c12.3,0.7,23.2,1.2,34.6,2.1c16.6,1.2,25.1,2.4,29.9,6.6c3.6,3.3,3.8,7.1,3.8,8.5c0,3.3-1.7,7.1-4,10c-7.6,8.8-26.8,14-50.5,14
		c-13.8,0-34.1-2.1-46-8.3h-0.2c-7.1-3.3-10.9-7.1-13.3-10.9l-32,15.4c13.5,23,44.8,34.6,93,34.6c28.7,0,50-5.2,65.2-15.9
		c6.4-4.5,11.4-10,14.7-15.9c4.3-7.1,6.4-15.4,6.4-23.7C1041.5,452,1029.8,436.1,1010.4,429.3z"/>
	<path fill="#590055" d="M641.4,501.1V358.3h-32v13.8c-21.8-16.6-48.8-18.7-60.7-18.7c-57.4,0-97.5,35.6-97.5,86.3
		c0,60.7,47,87.7,93.4,87.7c19,0,36.8-3.8,51.9-11.1c5.2-2.6,9.5-5.2,12.8-7.8c0,1.4,0.2,2.8,0,4.3l-0.2,8.8
		c-0.7,13.3-3.3,22.5-10.7,29.2c-10.2,8.5-33.7,11.6-50.7,11.6c-14,0-29.2-2.6-37.5-6.4c-5.7-2.8-9-5.7-10.9-9L470,562.3
		c10.9,18.5,29.6,23.7,37,25.6c14,3.8,31.1,5.2,42.2,5.2c9,0,40.1-0.9,60.9-13c26.8-15.4,30.6-40.1,31.1-60.7v-8.8
		C641.6,507.5,641.4,503.9,641.4,501.1z M598,477.9c-7.8,9-25.1,18.5-50,18.5c-37.2,0-62.1-22.8-62.1-56.7c0-33,24-55.3,61.2-56.4
		c0.9,0,2.1,0,3.1,0c24.7,0,42.9,10.2,50.3,20.2c5.9,8.3,9.2,20.9,9.2,36.3C609.6,456,605.6,468.9,598,477.9z"/>
	<path fill="#590055" d="M809.3,358.8v89.6c0,10,0,23.7-8.3,33.7c-1.7,1.9-6.6,6.6-16.8,10.2c-10.2,2.6-20.6,3.8-29.6,3.8
		c-8.8-0.2-19.4-1.2-29.6-3.8c-10.4-3.3-15.2-8.1-16.8-10.2c-8.3-10-8.3-23.7-8.3-33.7v-89.6h-33V447v0.7c0,0.7,0,2.4,0,4.3
		c0,15.2,0.2,55.3,42.9,69.5c12.8,4.3,27.3,6.4,42.7,6.4c0.7,0,1.4,0,2.1,0c0.7,0,1.4,0,2.1,0c15.4,0,29.6-2.1,42.7-6.4
		c42.9-14,42.9-54.3,42.9-69.5c0-1.9,0-3.6,0-4.3V447v-88.2H809.3z"/>
</g>
</svg>
